<svg xmlns="http://www.w3.org/2000/svg" viewBox="0 0 48 48" aria-hidden="true">
  <path fill="#fff" d="M9 8h30v32H9z"/>
  <path fill="#4285f4" d="M9 8h30v10H9z"/>
  <path fill="#34a853" d="M9 18h30v22H9z"/>
  <path fill="#fbbc04" d="M9 8h10v10H9z"/>
  <path fill="#ea4335" d="M29 8h10v10H29z"/>
  <path fill="#fff" d="M18.1 23h5.8v12h-2.8v-9.2h-3z"/>
  <path fill="#fff" d="M26.1 25.3c0-1.5 1.2-2.6 3.1-2.6 1.8 0 3 .9 3 2.4 0 1.2-.7 2-1.9 2.9l-1.3 1h3.3V31h-6.2v-1.7l2.5-2c.7-.6 1-.9 1-1.4 0-.5-.4-.8-.9-.8-.6 0-1 .4-1 1.1z"/>
</svg>
