<svg width="120" height="120" viewBox="0 0 100 100" fill="none" xmlns="http://www.w3.org/2000/svg">
  <!-- Background Shield / App Tile -->
  <rect width="100" height="100" rx="22" fill="#1E222A"/>
  
  <!-- TOP BAR (Life Area Categories Spectrum) -->
  <!-- Work Block (Blue) -->
  <rect x="18" y="20" width="22" height="18" rx="4" fill="#3B82F6"/>
  <!-- Health Block (Emerald) -->
  <rect x="43" y="20" width="18" height="18" rx="4" fill="#10B981"/>
  <!-- Personal Block (Warm Amber) -->
  <rect x="64" y="20" width="18" height="18" rx="4" fill="#F59E0B"/>

  <!-- SIGNATURE ELEMENT: LOCKED NOTCH (Top Right Floating Block) -->
  <g>
    <rect x="65" y="42" width="17" height="17" rx="4" fill="#8B5CF6"/>
    <!-- Padlock Icon Overlay -->
    <path d="M72 47.5C71.1716 47.5 70.5 48.1716 70.5 49V51H76.5V49C76.5 48.1716 75.8284 47.5 75 47.5C74.1716 47.5 73.5 48.1716 73.5 49H73.5C73.5 48.1716 72.8284 47.5 72 47.5Z" fill="#ffffff" fill-opacity="0.9"/>
    <rect x="69.5" y="50.5" width="8" height="6" rx="1" fill="#ffffff"/>
  </g>

  <!-- VERTICAL STEM (Times Pillar) -->
  <!-- Segment 1: Work Deep Indigo -->
  <rect x="41" y="42" width="18" height="18" rx="4" fill="#3B82F6"/>
  <!-- Segment 2: Health/Growth Blend -->
  <rect x="41" y="63" width="18" height="18" rx="4" fill="#10B981"/>
</svg>
